HIERARCHY
ROOT hip
{
  OFFSET 0 0 0
  CHANNELS 6 Xposition Yposition Zposition Zrotation Yrotation Xrotation
  JOINT abdomen
  {
    OFFSET 0 20.6881 -0.73152
    CHANNELS 3 Zrotation Xrotation Yrotation
    JOINT chest
    {
      OFFSET 0 11.7043 -0.48768
      CHANNELS 3 Zrotation Xrotation Yrotation
      JOINT neck
      {
        OFFSET 0 22.1894 -2.19456
        CHANNELS 3 Zrotation Xrotation Yrotation
        JOINT head
        {
          OFFSET -0.24384 7.07133 1.2192
          CHANNELS 3 Zrotation Xrotation Yrotation
          JOINT leftEye
          {
            OFFSET 4.14528 8.04674 8.04672
            CHANNELS 3 Zrotation Xrotation Yrotation
            End Site
            {
              OFFSET 1 0 0
            }
          }
          JOINT rightEye
          {
            OFFSET -3.6576 8.04674 8.04672
            CHANNELS 3 Zrotation Xrotation Yrotation
            End Site
            {
              OFFSET 1 0 0
            }
          }
        }
      }
      JOINT rCollar
      {
        OFFSET -2.68224 19.2634 -4.8768
        CHANNELS 3 Zrotation Xrotation Yrotation
        JOINT rShldr
        {
          OFFSET -8.77824 -1.95073 1.46304
          CHANNELS 3 Zrotation Xrotation Yrotation
          JOINT rForeArm
          {
            OFFSET -28.1742 -1.7115 0.48768
            CHANNELS 3 Zrotation Xrotation Yrotation
            JOINT rHand
            {
              OFFSET -22.5879 0.773209 7.07136
              CHANNELS 3 Zrotation Xrotation Yrotation
              JOINT rThumb1
              {
                OFFSET -1.2192 -0.487915 3.41376
                CHANNELS 3 Zrotation Xrotation Yrotation
                JOINT rThumb2
                {
                  OFFSET -3.37035 -0.52449 3.41376
                  CHANNELS 3 Zrotation Xrotation Yrotation
                  End Site
                  {
                    OFFSET -1.78271 -1.18214 1.43049
                  }
                }
              }
              JOINT rIndex1
              {
                OFFSET -7.75947 0.938293 5.60832
                CHANNELS 3 Zrotation Xrotation Yrotation
                JOINT rIndex2
                {
                  OFFSET -2.54057 -0.884171 1.56538
                  CHANNELS 3 Zrotation Xrotation Yrotation
                  End Site
                  {
                    OFFSET -1.62519 -0.234802 1.16502
                  }
                }
              }
              JOINT rMid1
              {
                OFFSET -8.24714 1.18213 3.41376
                CHANNELS 3 Zrotation Xrotation Yrotation
                JOINT rMid2
                {
                  OFFSET -3.10165 -0.590103 1.0647
                  CHANNELS 3 Zrotation Xrotation Yrotation
                  End Site
                  {
                    OFFSET -2.48547 -0.328903 0.83742
                  }
                }
              }
              JOINT rRing1
              {
                OFFSET -8.82822 0.546677 1.51678
                CHANNELS 3 Zrotation Xrotation Yrotation
                JOINT rRing2
                {
                  OFFSET -2.60934 -0.819778 -0.0198488
                  CHANNELS 3 Zrotation Xrotation Yrotation
                  End Site
                  {
                    OFFSET -2.33842 -0.294052 0.168128
                  }
                }
              }
              JOINT rPinky1
              {
                OFFSET -8.27202 -0.0477905 -0.4584
                CHANNELS 3 Zrotation Xrotation Yrotation
                JOINT rPinky2
                {
                  OFFSET -1.82734 -0.647385 -0.700984
                  CHANNELS 3 Zrotation Xrotation Yrotation
                  End Site
                  {
                    OFFSET -1.69225 -0.51767 -0.607171
                  }
                }
              }
            }
          }
        }
      }
      JOINT lCollar
      {
        OFFSET 2.68224 19.2634 -4.8768
        CHANNELS 3 Zrotation Xrotation Yrotation
        JOINT lShldr
        {
          OFFSET 8.77824 -1.95073 1.46304
          CHANNELS 3 Zrotation Xrotation Yrotation
          JOINT lForeArm
          {
            OFFSET 28.1742 -1.7115 0.48768
            CHANNELS 3 Zrotation Xrotation Yrotation
            JOINT lHand
            {
              OFFSET 22.5879 0.773209 7.07136
              CHANNELS 3 Zrotation Xrotation Yrotation
              JOINT lThumb1
              {
                OFFSET 1.2192 -0.487915 3.41376
                CHANNELS 3 Zrotation Xrotation Yrotation
                JOINT lThumb2
                {
                  OFFSET 3.37035 -0.52449 3.41376
                  CHANNELS 3 Zrotation Xrotation Yrotation
                  End Site
                  {
                    OFFSET 1.78271 -1.18214 1.43049
                  }
                }
              }
              JOINT lIndex1
              {
                OFFSET 7.75947 0.938293 5.60832
                CHANNELS 3 Zrotation Xrotation Yrotation
                JOINT lIndex2
                {
                  OFFSET 2.54057 -0.884171 1.56538
                  CHANNELS 3 Zrotation Xrotation Yrotation
                  End Site
                  {
                    OFFSET 1.62519 -0.234802 1.16502
                  }
                }
              }
              JOINT lMid1
              {
                OFFSET 8.24714 1.18213 3.41376
                CHANNELS 3 Zrotation Xrotation Yrotation
                JOINT lMid2
                {
                  OFFSET 3.10165 -0.590103 1.0647
                  CHANNELS 3 Zrotation Xrotation Yrotation
                  End Site
                  {
                    OFFSET 2.48547 -0.328903 0.83742
                  }
                }
              }
              JOINT lRing1
              {
                OFFSET 8.82822 0.546677 1.51678
                CHANNELS 3 Zrotation Xrotation Yrotation
                JOINT lRing2
                {
                  OFFSET 2.60934 -0.819778 -0.0198488
                  CHANNELS 3 Zrotation Xrotation Yrotation
                  End Site
                  {
                    OFFSET 2.33842 -0.294052 0.168128
                  }
                }
              }
              JOINT lPinky1
              {
                OFFSET 8.27202 -0.0477905 -0.4584
                CHANNELS 3 Zrotation Xrotation Yrotation
                JOINT lPinky2
                {
                  OFFSET 1.82734 -0.647385 -0.700984
                  CHANNELS 3 Zrotation Xrotation Yrotation
                  End Site
                  {
                    OFFSET 1.69225 -0.51767 -0.607171
                  }
                }
              }
            }
          }
        }
      }
    }
  }
  JOINT rButtock
  {
    OFFSET -8.77824 4.35084 1.2192
    CHANNELS 3 Zrotation Xrotation Yrotation
    JOINT rThigh
    {
      OFFSET 0 -1.70687 -2.19456
      CHANNELS 3 Zrotation Xrotation Yrotation
      JOINT rShin
      {
        OFFSET 0 -36.8199 0.73152
        CHANNELS 3 Zrotation Xrotation Yrotation
        JOINT rFoot
        {
          OFFSET 0.73152 -45.1104 -5.12064
          CHANNELS 3 Zrotation Xrotation Yrotation
          End Site
          {
            OFFSET -1.1221 -3.69964 12.103
          }
        }
      }
    }
  }
  JOINT lButtock
  {
    OFFSET 8.77824 4.35084 1.2192
    CHANNELS 3 Zrotation Xrotation Yrotation
    JOINT lThigh
    {
      OFFSET 0 -1.70687 -2.19456
      CHANNELS 3 Zrotation Xrotation Yrotation
      JOINT lShin
      {
        OFFSET 0 -36.8199 0.73152
        CHANNELS 3 Zrotation Xrotation Yrotation
        JOINT lFoot
        {
          OFFSET -0.73152 -45.1104 -5.12064
          CHANNELS 3 Zrotation Xrotation Yrotation
          End Site
          {
            OFFSET 1.1221 -3.69964 12.103
          }
        }
      }
    }
  }
}
MOTION
Frames:	4
Frame Time:	0.03333
5.160329995211214 59.666099548339844 61.75799933006056 9.201700240373611 16.441600620746613 -3.6558998376131058 -10.868500024080276 17.37489938735962 2.4339400604367256 8.546610251069069 -8.745319694280624 1.1268300376832485 -8.627629727125168 14.566200077533722 -9.341930150985718 6.960780322551727 -21.952099800109863 -16.737399995326996 0.0 0.0 0.0 0.0 0.0 0.0 0.0 0.0 0.0 45.125200152397156 -9.860140308737755 60.855900049209595 -17.29090064764023 -9.944080039858818 32.44820058345795 -0.007369919985649176 2.450399938970804 0.3445939952507615 2.6771385108759205e-09 1.3465069059748203e-08 8.44124770082999e-10 4.630296146501678e-09 2.325180048501352e-08 1.4529177860822529e-09 2.6771385108759205e-09 1.3465069059748203e-08 8.44124770082999e-10 7.7309102565050125 5.474880114197731 0.41731400415301323 2.6771385108759205e-09 1.3465069059748203e-08 8.44124770082999e-10 2.905540131032467 0.9651830233633518 0.102901995414868 2.6771385108759205e-09 1.3465069059748203e-08 8.44124770082999e-10 10.27859978377819 0.7318009994924068 0.025912300043273717 2.6771385108759205e-09 1.3465069059748203e-08 8.44124770082999e-10 2.221670038998127 -0.733487019315362 -0.2089200052432716 0.0 0.0 0.0 -104.95699524879456 61.62259876728058 25.396699905395508 28.410100042819977 -36.79419994354248 -78.34660112857819 3.851259872317314 -47.33860194683075 8.772330209612846 5.395683899678261e-10 3.0260594030551147e-09 7.111111699487083e-10 9.051159821638066e-10 5.098002020531567e-09 1.248281478183344e-09 5.395683899678261e-10 3.0260594030551147e-09 7.111111699487083e-10 -7.7309102565050125 5.474880114197731 -0.41731400415301323 5.395683899678261e-10 3.0260594030551147e-09 7.111111699487083e-10 -2.905540131032467 0.9651830233633518 -0.102901995414868 5.395683899678261e-10 3.0260594030551147e-09 7.111111699487083e-10 -10.27859978377819 0.7318009994924068 -0.025912300043273717 5.395683899678261e-10 3.0260594030551147e-09 7.111111699487083e-10 -2.221670038998127 -0.733487019315362 0.2089200052432716 0.0 0.0 0.0 -33.39209944009781 -52.0633989572525 -10.742800310254097 -0.26243300875648856 34.919799864292145 0.33180599799379706 -2.2662599198520184 31.92279875278473 7.3531801253557205 0.0 0.0 0.0 -0.16363599803298712 -3.537900075316429 2.7449100092053413 0.5854610167443752 56.61909878253937 -2.494329996407032 14.862299859523773 -23.23369950056076 34.97990012168884
4.59693401819095 59.175498962402344 63.94149938155897 9.167400151491165 20.162300616502762 -3.482999950647354 -11.270500123500824 17.217000424861908 3.3523401618003845 8.673919960856438 -8.584130331873894 1.3900499604642391 -9.295399859547615 14.633499383926392 -10.637899786233902 7.604010254144669 -22.771699726581573 -19.117100089788437 0.0 0.0 0.0 0.0 0.0 0.0 7.993605777301127e-14 0.0 0.0 52.8643012046814 -20.145000368356705 65.33410012722015 -10.062400326132774 -3.9266500622034073 19.43199947476387 -0.732197966426611 31.29790037870407 4.507870003581047 1.2462830767390187e-09 6.949960607016692e-09 4.2462033889023587e-10 2.1581136877557583e-09 1.2007035365968477e-08 7.264588930411264e-10 1.2462830767390187e-09 6.949960607016692e-09 4.2462033889023587e-10 7.7309102565050125 5.474880114197731 0.41731400415301323 1.2462830767390187e-09 6.949960607016692e-09 4.2462033889023587e-10 2.905540131032467 0.9651830233633518 0.102901995414868 1.2462830767390187e-09 6.949960607016692e-09 4.2462033889023587e-10 10.27859978377819 0.7318009994924068 0.025912300043273717 1.2462830767390187e-09 6.949960607016692e-09 4.2462033889023587e-10 2.221670038998127 -0.733487019315362 -0.2089200052432716 7.993605777301127e-14 0.0 0.0 -110.29099702835083 58.307801485061646 35.94849944114685 28.235600888729095 -37.901600897312164 -80.80860078334808 4.588549844920635 -49.69809830188751 9.640659838914871 -6.02478067435186e-10 -8.748202162678353e-10 -3.785771696129814e-10 -1.0251799409388695e-09 -1.4196643860486802e-09 -6.804157237638719e-10 -6.02478067435186e-10 -8.748202162678353e-10 -3.785771696129814e-10 -7.7309102565050125 5.474880114197731 -0.41731400415301323 -6.02478067435186e-10 -8.748202162678353e-10 -3.785771696129814e-10 -2.905540131032467 0.9651830233633518 -0.102901995414868 -6.02478067435186e-10 -8.748202162678353e-10 -3.785771696129814e-10 -10.27859978377819 0.7318009994924068 -0.025912300043273717 -6.02478067435186e-10 -8.748202162678353e-10 -3.785771696129814e-10 -2.221670038998127 -0.733487019315362 0.2089200052432716 0.0 0.0 0.0 -35.691600143909454 -49.63229835033417 -12.65049934387207 -0.26155699510127306 35.02449989318848 0.37407700438052416 -1.7516000010073185 31.334700286388397 6.549230217933655 0.0 0.0 0.0 1.4870399795472622 -2.7021400071680546 1.58330999314785 0.5670549860224128 56.93240225315094 -2.6273700781166553 15.309000313282013 -22.966800928115845 36.31260126829147
3.9947153902612627 58.259700775146484 66.14079943229444 8.950799703598022 23.647800385951996 -2.8160998597741127 -11.885199397802353 16.899400055408478 4.117010124027729 8.768870159983635 -8.538009747862816 1.6067399270832539 -9.89761009812355 14.827200472354889 -11.78500011563301 8.379430174827576 -23.913001120090485 -21.1906997859478 0.0 0.0 0.0 0.0 0.0 0.0 2.398081733190338e-13 0.0 0.0 57.854400873184204 -28.152299523353577 69.47369813919067 -5.931050106883049 -2.0130300521850586 10.362499952316284 -4.837829992175102 51.21769845485687 10.073300153017044 -5.7753801741000643e-11 1.028297447192017e-09 1.0231815394945443e-10 -9.604317341427304e-11 1.7752199710230343e-09 1.8417267710901797e-10 -5.7753801741000643e-11 1.028297447192017e-09 1.0231815394945443e-10 7.7309102565050125 5.474880114197731 0.41731400415301323 -5.7753801741000643e-11 1.028297447192017e-09 1.0231815394945443e-10 2.905540131032467 0.9651830233633518 0.102901995414868 -5.7753801741000643e-11 1.028297447192017e-09 1.0231815394945443e-10 10.27859978377819 0.7318009994924068 0.025912300043273717 -5.7753801741000643e-11 1.028297447192017e-09 1.0231815394945443e-10 2.221670038998127 -0.733487019315362 -0.2089200052432716 2.398081733190338e-13 0.0 0.0 -112.22300291061401 55.99559783935547 42.435199320316315 28.262200355529785 -38.690698742866516 -81.6061019897461 3.8453999161720276 -47.31279909610748 8.764360025525093 -1.6372103672779303e-09 -3.1948843570717145e-09 -1.0180656317970715e-09 -2.7786173362187583e-09 -5.248921297607012e-09 -1.816147232602816e-09 -1.6372103672779303e-09 -3.1948843570717145e-09 -1.0180656317970715e-09 -7.7309102565050125 5.474880114197731 -0.41731400415301323 -1.6372103672779303e-09 -3.1948843570717145e-09 -1.0180656317970715e-09 -2.905540131032467 0.9651830233633518 -0.102901995414868 -1.6372503353068169e-09 -3.1948843570717145e-09 -1.0180656317970715e-09 -10.27859978377819 0.7318009994924068 -0.025912300043273717 -1.6372103672779303e-09 -3.1948843570717145e-09 -1.0180656317970715e-09 -2.221670038998127 -0.733487019315362 0.2089200052432716 0.0 0.0 0.0 -37.82229870557785 -48.37410092353821 -15.8359993994236 -0.3012430015951395 37.375600934028625 0.47269600443542004 -1.324810003861785 28.573500216007233 6.226870268583298 0.0 0.0 0.0 3.307510055601597 -2.5830799341201782 0.35143999848514795 0.5548550002276897 57.72010266780853 -2.847200073301792 15.800799429416656 -22.82519906759262 37.660100162029266
3.456319985445589 57.198699951171875 68.12949946452864 8.805600330233574 26.537000834941864 -1.8995999358594418 -13.100800663232803 16.437299698591232 4.162129908800125 8.670079708099365 -8.799220025539398 1.600589957088232 -10.036099925637245 14.835900217294693 -12.339199483394623 9.636969789862633 -24.87280011177063 -21.98659971356392 0.0 0.0 0.0 0.0 0.0 0.0 2.248201624865942e-13 0.0 0.0 44.08650130033493 -25.87969869375229 63.13939869403839 -7.031349912285805 -2.451259922236204 12.496899962425232 -1.7632399499416351 37.63009965419769 5.99420003592968 8.919739946655625e-10 7.714788807788864e-09 5.678657544194721e-10 1.5499301841970237e-09 1.3270664567244239e-08 9.72022462519817e-10 8.919739946655625e-10 7.7173467616376e-09 5.678657544194721e-10 7.7309102565050125 5.474880114197731 0.41731400415301323 8.919764926673679e-10 7.714788807788864e-09 5.678657544194721e-10 2.905540131032467 0.9651830233633518 0.102901995414868 8.919814886709787e-10 7.7173467616376e-09 5.678657544194721e-10 10.27859978377819 0.7318009994924068 0.025912300043273717 8.919739946655625e-10 7.714788807788864e-09 5.678657544194721e-10 2.221670038998127 -0.733487019315362 -0.2089200052432716 2.248201624865942e-13 0.0 0.0 -113.73899817466736 53.17249774932861 47.24949896335602 28.092000782489777 -39.99790012836456 -83.85039746761322 3.4987998381257057 -45.73599815368652 8.288709819316864 -1.1992407067396016e-10 -1.3019985090068076e-09 -1.176658770418726e-10 -1.9526380512502328e-10 -2.184492586820852e-09 -2.0975221559638157e-10 -1.1992656867576557e-10 -1.3019985090068076e-09 -1.176658770418726e-10 -7.7309102565050125 5.474880114197731 -0.41731400415301323 -1.1991907467034935e-10 -1.3019985090068076e-09 -1.176658770418726e-10 -2.905540131032467 0.9651830233633518 -0.102901995414868 -1.1992906667757097e-10 -1.3019985090068076e-09 -1.176658770418726e-10 -10.27859978377819 0.7318009994924068 -0.025912300043273717 -1.1991407866673853e-10 -1.3019985090068076e-09 -1.176658770418726e-10 -2.221670038998127 -0.733487019315362 0.2089200052432716 0.0 0.0 0.0 -40.32610058784485 -48.90640139579773 -20.021000504493713 -0.38232198916375637 41.3154011964798 0.5913529917597771 -0.6678010197356343 23.703198730945587 5.589429885149002 0.0 0.0 0.0 5.019040033221245 -2.8630200773477554 -0.9057850018143654 0.5155730014666915 58.395198583602905 -3.1149200722575188 16.08639970421791 -22.871601283550262 38.58780115842819
